<mxfile host="65bd71144e">
    <diagram id="6a731a19-8d31-9384-78a2-239565b7b9f0" name="Page-1">
        <mxGraphModel dx="864" dy="512" grid="1" gridSize="10" guides="1" tooltips="1" connect="1" arrows="1" fold="1" page="1" pageScale="1" pageWidth="1169" pageHeight="827" background="none" math="0" shadow="0">
            <root>
                <mxCell id="0"/>
                <mxCell id="1" parent="0"/>
                <mxCell id="1350" value="Air" style="ellipse;whiteSpace=wrap;html=1;shadow=0;fontFamily=Helvetica;fontSize=20;fontColor=#FFFFFF;align=center;strokeWidth=3;fillColor=#1699D3;strokeColor=none;" parent="1" vertex="1">
                    <mxGeometry x="523.5" y="271.5" width="120" height="120" as="geometry"/>
                </mxCell>
                <mxCell id="1351" value="Ground&lt;br&gt;" style="ellipse;whiteSpace=wrap;html=1;shadow=0;fontFamily=Helvetica;fontSize=20;fontColor=#FFFFFF;align=center;strokeWidth=3;fillColor=#F08705;strokeColor=none;gradientColor=none;" parent="1" vertex="1">
                    <mxGeometry x="1103.5" y="241.5" width="120" height="120" as="geometry"/>
                </mxCell>
                <mxCell id="1352" value="Light" style="ellipse;whiteSpace=wrap;html=1;shadow=0;fontFamily=Helvetica;fontSize=20;fontColor=#FFFFFF;align=center;strokeWidth=3;fillColor=#E85642;strokeColor=none;" parent="1" vertex="1">
                    <mxGeometry x="1701" y="356.5" width="120" height="120" as="geometry"/>
                </mxCell>
                <mxCell id="1353" value="Water" style="ellipse;whiteSpace=wrap;html=1;shadow=0;fontFamily=Helvetica;fontSize=20;fontColor=#FFFFFF;align=center;strokeWidth=3;fillColor=#1699D3;strokeColor=none;" parent="1" vertex="1">
                    <mxGeometry x="1936" y="806.5" width="120" height="120" as="geometry"/>
                </mxCell>
                <mxCell id="1354" value="Knowledge-&lt;br&gt;Base" style="ellipse;whiteSpace=wrap;html=1;shadow=0;fontFamily=Helvetica;fontSize=20;fontColor=#FFFFFF;align=center;strokeWidth=3;fillColor=#736ca8;strokeColor=none;" parent="1" vertex="1">
                    <mxGeometry x="1711" y="1171.5" width="120" height="120" as="geometry"/>
                </mxCell>
                <mxCell id="1355" value="Management" style="ellipse;whiteSpace=wrap;html=1;shadow=0;fontFamily=Helvetica;fontSize=20;fontColor=#FFFFFF;align=center;strokeWidth=3;fillColor=#F08705;strokeColor=none;" parent="1" vertex="1">
                    <mxGeometry x="938.5" y="1295" width="120" height="120" as="geometry"/>
                </mxCell>
                <mxCell id="1356" value="HMI" style="ellipse;whiteSpace=wrap;html=1;shadow=0;fontFamily=Helvetica;fontSize=20;fontColor=#FFFFFF;align=center;strokeWidth=3;fillColor=#E85642;strokeColor=none;" parent="1" vertex="1">
                    <mxGeometry x="406" y="871.5" width="120" height="120" as="geometry"/>
                </mxCell>
                <mxCell id="1359" style="endArrow=none;strokeWidth=6;strokeColor=#1699D3;html=1;" parent="1" source="1515" target="1350" edge="1">
                    <mxGeometry relative="1" as="geometry"/>
                </mxCell>
                <mxCell id="1360" style="endArrow=none;strokeWidth=6;strokeColor=#f08705;html=1;" parent="1" source="1515" target="1351" edge="1">
                    <mxGeometry relative="1" as="geometry"/>
                </mxCell>
                <mxCell id="1361" style="endArrow=none;strokeWidth=6;strokeColor=#E85642;html=1;" parent="1" source="1515" target="1352" edge="1">
                    <mxGeometry relative="1" as="geometry"/>
                </mxCell>
                <mxCell id="1362" style="endArrow=none;strokeWidth=6;strokeColor=#1699D3;html=1;" parent="1" source="1515" target="1353" edge="1">
                    <mxGeometry relative="1" as="geometry"/>
                </mxCell>
                <mxCell id="1364" style="endArrow=none;strokeWidth=6;strokeColor=#736ca8;html=1;" parent="1" source="1515" target="1354" edge="1">
                    <mxGeometry relative="1" as="geometry"/>
                </mxCell>
                <mxCell id="1365" value="" style="edgeStyle=none;endArrow=none;strokeWidth=6;strokeColor=#F08705;html=1;" parent="1" source="1515" target="1355" edge="1">
                    <mxGeometry x="181" y="226.5" width="100" height="100" as="geometry">
                        <mxPoint x="181" y="326.5" as="sourcePoint"/>
                        <mxPoint x="281" y="226.5" as="targetPoint"/>
                    </mxGeometry>
                </mxCell>
                <mxCell id="1366" value="" style="edgeStyle=none;endArrow=none;strokeWidth=6;strokeColor=#E85642;html=1;" parent="1" source="1515" target="1356" edge="1">
                    <mxGeometry x="181" y="226.5" width="100" height="100" as="geometry">
                        <mxPoint x="181" y="326.5" as="sourcePoint"/>
                        <mxPoint x="281" y="226.5" as="targetPoint"/>
                    </mxGeometry>
                </mxCell>
                <mxCell id="1553" style="edgeStyle=none;html=1;exitX=0;exitY=0.5;exitDx=0;exitDy=0;entryX=1;entryY=0.5;entryDx=0;entryDy=0;endArrow=none;endFill=0;strokeColor=#f0f0f0;" edge="1" parent="1" source="1368" target="1551">
                    <mxGeometry relative="1" as="geometry"/>
                </mxCell>
                <mxCell id="1368" value="Outside" style="rounded=1;fillColor=#64BBE2;strokeColor=none;strokeWidth=3;shadow=0;html=1;fontColor=#FFFFFF;" parent="1" vertex="1">
                    <mxGeometry x="358.5" y="401.5" width="130" height="40" as="geometry"/>
                </mxCell>
                <mxCell id="1547" style="edgeStyle=none;html=1;exitX=0.75;exitY=0;exitDx=0;exitDy=0;entryX=0.25;entryY=1;entryDx=0;entryDy=0;endArrow=none;endFill=0;strokeColor=#f0f0f0;" edge="1" parent="1" source="1370" target="1544">
                    <mxGeometry relative="1" as="geometry"/>
                </mxCell>
                <mxCell id="1548" style="edgeStyle=none;html=1;exitX=0;exitY=0.25;exitDx=0;exitDy=0;entryX=1;entryY=0.5;entryDx=0;entryDy=0;endArrow=none;endFill=0;strokeColor=#f0f0f0;" edge="1" parent="1" source="1370" target="1543">
                    <mxGeometry relative="1" as="geometry"/>
                </mxCell>
                <mxCell id="1370" value="Inside" style="rounded=1;strokeColor=none;strokeWidth=3;shadow=0;html=1;fontColor=#FFFFFF;fillColor=#6DCDF7;" parent="1" vertex="1">
                    <mxGeometry x="358.5" y="206.5" width="130" height="40" as="geometry"/>
                </mxCell>
                <mxCell id="1380" value="" style="edgeStyle=none;endArrow=none;strokeWidth=3;strokeColor=#64BBE2;html=1;" parent="1" source="1350" target="1368" edge="1">
                    <mxGeometry x="-221.5" y="56.5" width="100" height="100" as="geometry">
                        <mxPoint x="-221.5" y="156.5" as="sourcePoint"/>
                        <mxPoint x="-121.5" y="56.5" as="targetPoint"/>
                    </mxGeometry>
                </mxCell>
                <mxCell id="1382" value="" style="edgeStyle=none;endArrow=none;strokeWidth=3;strokeColor=#64BBE2;html=1;" parent="1" source="1350" target="1370" edge="1">
                    <mxGeometry x="-221.5" y="56.5" width="100" height="100" as="geometry">
                        <mxPoint x="-221.5" y="156.5" as="sourcePoint"/>
                        <mxPoint x="-121.5" y="56.5" as="targetPoint"/>
                    </mxGeometry>
                </mxCell>
                <mxCell id="1388" value="&amp;nbsp;" style="rounded=1;fillColor=#f5af58;strokeColor=none;strokeWidth=3;shadow=0;html=1;fontColor=#FFFFFF;" parent="1" vertex="1">
                    <mxGeometry x="913.5" y="341.5" width="120" height="40" as="geometry"/>
                </mxCell>
                <mxCell id="1390" value="&amp;nbsp;" style="rounded=1;fillColor=#f5af58;strokeColor=none;strokeWidth=3;shadow=0;html=1;fontColor=#FFFFFF;" parent="1" vertex="1">
                    <mxGeometry x="923.5" y="201.5" width="120" height="40" as="geometry"/>
                </mxCell>
                <mxCell id="1392" value="&amp;nbsp;" style="rounded=1;fillColor=#f5af58;strokeColor=none;strokeWidth=3;shadow=0;html=1;fontColor=#FFFFFF;" parent="1" vertex="1">
                    <mxGeometry x="1033.5" y="81.5" width="120" height="40" as="geometry"/>
                </mxCell>
                <mxCell id="1394" value="&amp;nbsp;" style="rounded=1;fillColor=#f5af58;strokeColor=none;strokeWidth=3;shadow=0;html=1;fontColor=#FFFFFF;" parent="1" vertex="1">
                    <mxGeometry x="1233.5" y="141.5" width="120" height="40" as="geometry"/>
                </mxCell>
                <mxCell id="1396" value="&amp;nbsp;" style="rounded=1;fillColor=#f5af58;strokeColor=none;strokeWidth=3;shadow=0;html=1;fontColor=#FFFFFF;" parent="1" vertex="1">
                    <mxGeometry x="1298.5" y="271.5" width="120" height="40" as="geometry"/>
                </mxCell>
                <mxCell id="1398" value="&amp;nbsp;" style="rounded=1;fillColor=#f5af58;strokeColor=none;strokeWidth=3;shadow=0;html=1;fontColor=#FFFFFF;" parent="1" vertex="1">
                    <mxGeometry x="1238.5" y="401.5" width="120" height="40" as="geometry"/>
                </mxCell>
                <mxCell id="1400" value="" style="edgeStyle=none;endArrow=none;strokeWidth=3;strokeColor=#F5AF58;html=1;" parent="1" source="1351" target="1388" edge="1">
                    <mxGeometry x="3.5" y="21.5" width="100" height="100" as="geometry">
                        <mxPoint x="3.5" y="121.5" as="sourcePoint"/>
                        <mxPoint x="103.5" y="21.5" as="targetPoint"/>
                    </mxGeometry>
                </mxCell>
                <mxCell id="1402" value="" style="edgeStyle=none;endArrow=none;strokeWidth=3;strokeColor=#F5AF58;html=1;" parent="1" source="1351" target="1390" edge="1">
                    <mxGeometry x="3.5" y="21.5" width="100" height="100" as="geometry">
                        <mxPoint x="3.5" y="121.5" as="sourcePoint"/>
                        <mxPoint x="103.5" y="21.5" as="targetPoint"/>
                    </mxGeometry>
                </mxCell>
                <mxCell id="1404" value="" style="edgeStyle=none;endArrow=none;strokeWidth=3;strokeColor=#F5AF58;html=1;" parent="1" source="1351" target="1392" edge="1">
                    <mxGeometry x="3.5" y="21.5" width="100" height="100" as="geometry">
                        <mxPoint x="3.5" y="121.5" as="sourcePoint"/>
                        <mxPoint x="103.5" y="21.5" as="targetPoint"/>
                    </mxGeometry>
                </mxCell>
                <mxCell id="1406" value="" style="edgeStyle=none;endArrow=none;strokeWidth=3;strokeColor=#F5AF58;html=1;" parent="1" source="1351" target="1394" edge="1">
                    <mxGeometry x="3.5" y="21.5" width="100" height="100" as="geometry">
                        <mxPoint x="3.5" y="121.5" as="sourcePoint"/>
                        <mxPoint x="103.5" y="21.5" as="targetPoint"/>
                    </mxGeometry>
                </mxCell>
                <mxCell id="1408" value="" style="edgeStyle=none;endArrow=none;strokeWidth=3;strokeColor=#F5AF58;html=1;" parent="1" source="1351" target="1396" edge="1">
                    <mxGeometry x="3.5" y="21.5" width="100" height="100" as="geometry">
                        <mxPoint x="3.5" y="121.5" as="sourcePoint"/>
                        <mxPoint x="103.5" y="21.5" as="targetPoint"/>
                    </mxGeometry>
                </mxCell>
                <mxCell id="1410" value="" style="edgeStyle=none;endArrow=none;strokeWidth=3;strokeColor=#F5AF58;html=1;" parent="1" source="1351" target="1398" edge="1">
                    <mxGeometry x="3.5" y="21.5" width="100" height="100" as="geometry">
                        <mxPoint x="3.5" y="121.5" as="sourcePoint"/>
                        <mxPoint x="103.5" y="21.5" as="targetPoint"/>
                    </mxGeometry>
                </mxCell>
                <mxCell id="1412" value="&amp;nbsp;" style="rounded=1;fillColor=#f08e81;strokeColor=none;strokeWidth=3;shadow=0;html=1;fontColor=#FFFFFF;" parent="1" vertex="1">
                    <mxGeometry x="1946" y="401.5" width="120" height="40" as="geometry"/>
                </mxCell>
                <mxCell id="1413" value="&amp;nbsp;" style="rounded=1;fillColor=#f08e81;strokeColor=none;strokeWidth=3;shadow=0;html=1;fontColor=#FFFFFF;" parent="1" vertex="1">
                    <mxGeometry x="1491" y="436.5" width="120" height="40" as="geometry"/>
                </mxCell>
                <mxCell id="1415" value="&amp;nbsp;" style="rounded=1;fillColor=#f08e81;strokeColor=none;strokeWidth=3;shadow=0;html=1;fontColor=#FFFFFF;" parent="1" vertex="1">
                    <mxGeometry x="1541" y="291.5" width="120" height="40" as="geometry"/>
                </mxCell>
                <mxCell id="1418" value="&amp;nbsp;" style="rounded=1;fillColor=#f08e81;strokeColor=none;strokeWidth=3;shadow=0;html=1;fontColor=#FFFFFF;" parent="1" vertex="1">
                    <mxGeometry x="1861" y="251.5" width="120" height="40" as="geometry"/>
                </mxCell>
                <mxCell id="1421" value="&amp;nbsp;" style="rounded=1;fillColor=#f08e81;strokeColor=none;strokeWidth=3;shadow=0;html=1;fontColor=#FFFFFF;" parent="1" vertex="1">
                    <mxGeometry x="1781" y="506.5" width="120" height="40" as="geometry"/>
                </mxCell>
                <mxCell id="1424" value="" style="edgeStyle=none;endArrow=none;strokeWidth=3;strokeColor=#F08E81;html=1;" parent="1" source="1352" target="1413" edge="1">
                    <mxGeometry x="31" y="106.5" width="100" height="100" as="geometry">
                        <mxPoint x="31" y="206.5" as="sourcePoint"/>
                        <mxPoint x="131" y="106.5" as="targetPoint"/>
                    </mxGeometry>
                </mxCell>
                <mxCell id="1426" value="" style="edgeStyle=none;endArrow=none;strokeWidth=3;strokeColor=#F08E81;html=1;" parent="1" source="1352" target="1415" edge="1">
                    <mxGeometry x="31" y="106.5" width="100" height="100" as="geometry">
                        <mxPoint x="31" y="206.5" as="sourcePoint"/>
                        <mxPoint x="131" y="106.5" as="targetPoint"/>
                    </mxGeometry>
                </mxCell>
                <mxCell id="1429" value="" style="edgeStyle=none;endArrow=none;strokeWidth=3;strokeColor=#F08E81;html=1;" parent="1" source="1352" target="1418" edge="1">
                    <mxGeometry x="31" y="106.5" width="100" height="100" as="geometry">
                        <mxPoint x="31" y="206.5" as="sourcePoint"/>
                        <mxPoint x="131" y="106.5" as="targetPoint"/>
                    </mxGeometry>
                </mxCell>
                <mxCell id="1431" value="" style="edgeStyle=none;endArrow=none;strokeWidth=3;strokeColor=#F08E81;html=1;" parent="1" source="1352" target="1412" edge="1">
                    <mxGeometry x="31" y="106.5" width="100" height="100" as="geometry">
                        <mxPoint x="31" y="206.5" as="sourcePoint"/>
                        <mxPoint x="131" y="106.5" as="targetPoint"/>
                    </mxGeometry>
                </mxCell>
                <mxCell id="1433" value="" style="edgeStyle=none;endArrow=none;strokeWidth=3;strokeColor=#F08E81;html=1;" parent="1" source="1352" target="1421" edge="1">
                    <mxGeometry x="31" y="106.5" width="100" height="100" as="geometry">
                        <mxPoint x="31" y="206.5" as="sourcePoint"/>
                        <mxPoint x="131" y="106.5" as="targetPoint"/>
                    </mxGeometry>
                </mxCell>
                <mxCell id="1436" value="&amp;nbsp;" style="rounded=1;fillColor=#64BBE2;strokeColor=none;strokeWidth=3;shadow=0;html=1;fontColor=#FFFFFF;" parent="1" vertex="1">
                    <mxGeometry x="1780" y="726.5" width="120" height="40" as="geometry"/>
                </mxCell>
                <mxCell id="1437" value="&amp;nbsp;" style="rounded=1;fillColor=#64BBE2;strokeColor=none;strokeWidth=3;shadow=0;html=1;fontColor=#FFFFFF;" parent="1" vertex="1">
                    <mxGeometry x="1936" y="666.5" width="120" height="40" as="geometry"/>
                </mxCell>
                <mxCell id="1439" value="&amp;nbsp;" style="rounded=1;fillColor=#64BBE2;strokeColor=none;strokeWidth=3;shadow=0;html=1;fontColor=#FFFFFF;" parent="1" vertex="1">
                    <mxGeometry x="2101" y="706.5" width="120" height="40" as="geometry"/>
                </mxCell>
                <mxCell id="1442" value="&amp;nbsp;" style="rounded=1;fillColor=#64BBE2;strokeColor=none;strokeWidth=3;shadow=0;html=1;fontColor=#FFFFFF;" parent="1" vertex="1">
                    <mxGeometry x="2181" y="871.5" width="120" height="40" as="geometry"/>
                </mxCell>
                <mxCell id="1443" value="&amp;nbsp;" style="rounded=1;fillColor=#64BBE2;strokeColor=none;strokeWidth=3;shadow=0;html=1;fontColor=#FFFFFF;" parent="1" vertex="1">
                    <mxGeometry x="1981" y="1016.5" width="120" height="40" as="geometry"/>
                </mxCell>
                <mxCell id="1445" value="&amp;nbsp;" style="rounded=1;fillColor=#64BBE2;strokeColor=none;strokeWidth=3;shadow=0;html=1;fontColor=#FFFFFF;" parent="1" vertex="1">
                    <mxGeometry x="1756" y="891.5" width="120" height="40" as="geometry"/>
                </mxCell>
                <mxCell id="1447" value="" style="edgeStyle=none;endArrow=none;strokeWidth=3;strokeColor=#64BBE2;html=1;" parent="1" source="1353" target="1436" edge="1">
                    <mxGeometry x="-24" y="196.5" width="100" height="100" as="geometry">
                        <mxPoint x="-24" y="296.5" as="sourcePoint"/>
                        <mxPoint x="76" y="196.5" as="targetPoint"/>
                    </mxGeometry>
                </mxCell>
                <mxCell id="1448" value="" style="edgeStyle=none;endArrow=none;strokeWidth=3;strokeColor=#64BBE2;html=1;" parent="1" source="1353" target="1437" edge="1">
                    <mxGeometry x="-24" y="196.5" width="100" height="100" as="geometry">
                        <mxPoint x="-24" y="296.5" as="sourcePoint"/>
                        <mxPoint x="76" y="196.5" as="targetPoint"/>
                    </mxGeometry>
                </mxCell>
                <mxCell id="1450" value="" style="edgeStyle=none;endArrow=none;strokeWidth=3;strokeColor=#64BBE2;html=1;" parent="1" source="1353" target="1439" edge="1">
                    <mxGeometry x="-24" y="196.5" width="100" height="100" as="geometry">
                        <mxPoint x="-24" y="296.5" as="sourcePoint"/>
                        <mxPoint x="76" y="196.5" as="targetPoint"/>
                    </mxGeometry>
                </mxCell>
                <mxCell id="1452" value="" style="edgeStyle=none;endArrow=none;strokeWidth=3;strokeColor=#64BBE2;html=1;" parent="1" source="1353" target="1442" edge="1">
                    <mxGeometry x="-24" y="196.5" width="100" height="100" as="geometry">
                        <mxPoint x="-24" y="296.5" as="sourcePoint"/>
                        <mxPoint x="76" y="196.5" as="targetPoint"/>
                    </mxGeometry>
                </mxCell>
                <mxCell id="1454" value="" style="edgeStyle=none;endArrow=none;strokeWidth=3;strokeColor=#64BBE2;html=1;" parent="1" source="1353" target="1443" edge="1">
                    <mxGeometry x="-24" y="196.5" width="100" height="100" as="geometry">
                        <mxPoint x="-24" y="296.5" as="sourcePoint"/>
                        <mxPoint x="76" y="196.5" as="targetPoint"/>
                    </mxGeometry>
                </mxCell>
                <mxCell id="1456" value="" style="edgeStyle=none;endArrow=none;strokeWidth=3;strokeColor=#64BBE2;html=1;" parent="1" source="1353" target="1445" edge="1">
                    <mxGeometry x="-24" y="196.5" width="100" height="100" as="geometry">
                        <mxPoint x="-24" y="296.5" as="sourcePoint"/>
                        <mxPoint x="76" y="196.5" as="targetPoint"/>
                    </mxGeometry>
                </mxCell>
                <mxCell id="1457" value="&amp;nbsp;" style="rounded=1;fillColor=#a29dc5;strokeColor=none;strokeWidth=3;shadow=0;html=1;fontColor=#FFFFFF;" parent="1" vertex="1">
                    <mxGeometry x="1646" y="1087" width="120" height="40" as="geometry"/>
                </mxCell>
                <mxCell id="1458" value="&amp;nbsp;" style="rounded=1;fillColor=#a29dc5;strokeColor=none;strokeWidth=3;shadow=0;html=1;fontColor=#FFFFFF;" parent="1" vertex="1">
                    <mxGeometry x="1631" y="1301.5" width="120" height="40" as="geometry"/>
                </mxCell>
                <mxCell id="1459" value="&amp;nbsp;" style="rounded=1;fillColor=#a29dc5;strokeColor=none;strokeWidth=3;shadow=0;html=1;fontColor=#FFFFFF;" parent="1" vertex="1">
                    <mxGeometry x="1801" y="1114" width="120" height="40" as="geometry"/>
                </mxCell>
                <mxCell id="1460" value="" style="rounded=1;fillColor=#a29dc5;strokeColor=none;strokeWidth=3;shadow=0;html=1;fontColor=#FFFFFF;" parent="1" vertex="1">
                    <mxGeometry x="1901" y="1194" width="120" height="40" as="geometry"/>
                </mxCell>
                <mxCell id="1461" value="&amp;nbsp;" style="rounded=1;fillColor=#a29dc5;strokeColor=none;strokeWidth=3;shadow=0;html=1;fontColor=#FFFFFF;" parent="1" vertex="1">
                    <mxGeometry x="1821" y="1331.5" width="120" height="40" as="geometry"/>
                </mxCell>
                <mxCell id="1462" value="&amp;nbsp;" style="rounded=1;fillColor=#a29dc5;strokeColor=none;strokeWidth=3;shadow=0;html=1;fontColor=#FFFFFF;" parent="1" vertex="1">
                    <mxGeometry x="1551" y="1211.5" width="120" height="40" as="geometry"/>
                </mxCell>
                <mxCell id="1463" value="" style="edgeStyle=none;endArrow=none;strokeWidth=3;strokeColor=#A29DC5;html=1;" parent="1" source="1354" target="1460" edge="1">
                    <mxGeometry x="251" y="-103.5" width="100" height="100" as="geometry">
                        <mxPoint x="251" y="-3.5" as="sourcePoint"/>
                        <mxPoint x="351" y="-103.5" as="targetPoint"/>
                    </mxGeometry>
                </mxCell>
                <mxCell id="1464" value="" style="edgeStyle=none;endArrow=none;strokeWidth=3;strokeColor=#A29DC5;html=1;" parent="1" source="1354" target="1461" edge="1">
                    <mxGeometry x="251" y="-103.5" width="100" height="100" as="geometry">
                        <mxPoint x="251" y="-3.5" as="sourcePoint"/>
                        <mxPoint x="351" y="-103.5" as="targetPoint"/>
                    </mxGeometry>
                </mxCell>
                <mxCell id="1465" value="" style="edgeStyle=none;endArrow=none;strokeWidth=3;strokeColor=#A29DC5;html=1;" parent="1" source="1354" target="1458" edge="1">
                    <mxGeometry x="251" y="-103.5" width="100" height="100" as="geometry">
                        <mxPoint x="251" y="-3.5" as="sourcePoint"/>
                        <mxPoint x="351" y="-103.5" as="targetPoint"/>
                    </mxGeometry>
                </mxCell>
                <mxCell id="1466" value="" style="edgeStyle=none;endArrow=none;strokeWidth=3;strokeColor=#A29DC5;html=1;" parent="1" source="1354" target="1462" edge="1">
                    <mxGeometry x="251" y="-103.5" width="100" height="100" as="geometry">
                        <mxPoint x="251" y="-3.5" as="sourcePoint"/>
                        <mxPoint x="351" y="-103.5" as="targetPoint"/>
                    </mxGeometry>
                </mxCell>
                <mxCell id="1467" value="" style="edgeStyle=none;endArrow=none;strokeWidth=3;strokeColor=#A29DC5;html=1;" parent="1" source="1354" target="1457" edge="1">
                    <mxGeometry x="251" y="-103.5" width="100" height="100" as="geometry">
                        <mxPoint x="251" y="-3.5" as="sourcePoint"/>
                        <mxPoint x="351" y="-103.5" as="targetPoint"/>
                    </mxGeometry>
                </mxCell>
                <mxCell id="1470" value="&amp;nbsp;" style="rounded=1;fillColor=#f5af58;strokeColor=none;strokeWidth=3;shadow=0;html=1;fontColor=#FFFFFF;" parent="1" vertex="1">
                    <mxGeometry x="1123.5" y="1350" width="120" height="40" as="geometry"/>
                </mxCell>
                <mxCell id="1471" value="&amp;nbsp;" style="rounded=1;fillColor=#f5af58;strokeColor=none;strokeWidth=3;shadow=0;html=1;fontColor=#FFFFFF;" parent="1" vertex="1">
                    <mxGeometry x="1111" y="1457.5" width="120" height="40" as="geometry"/>
                </mxCell>
                <mxCell id="1472" value="&amp;nbsp;" style="rounded=1;fillColor=#f5af58;strokeColor=none;strokeWidth=3;shadow=0;html=1;fontColor=#FFFFFF;" parent="1" vertex="1">
                    <mxGeometry x="980" y="1530" width="120" height="40" as="geometry"/>
                </mxCell>
                <mxCell id="1473" value="&amp;nbsp;" style="rounded=1;fillColor=#f5af58;strokeColor=none;strokeWidth=3;shadow=0;html=1;fontColor=#FFFFFF;" parent="1" vertex="1">
                    <mxGeometry x="790" y="1497.5" width="120" height="40" as="geometry"/>
                </mxCell>
                <mxCell id="1474" value="&amp;nbsp;" style="rounded=1;fillColor=#f5af58;strokeColor=none;strokeWidth=3;shadow=0;html=1;fontColor=#FFFFFF;" parent="1" vertex="1">
                    <mxGeometry x="778.5" y="1397.5" width="120" height="40" as="geometry"/>
                </mxCell>
                <mxCell id="1475" value="&amp;nbsp;" style="rounded=1;fillColor=#f5af58;strokeColor=none;strokeWidth=3;shadow=0;html=1;fontColor=#FFFFFF;" parent="1" vertex="1">
                    <mxGeometry x="738.5" y="1325" width="120" height="40" as="geometry"/>
                </mxCell>
                <mxCell id="1476" value="&amp;nbsp;" style="rounded=1;fillColor=#f5af58;strokeColor=none;strokeWidth=3;shadow=0;html=1;fontColor=#FFFFFF;" parent="1" vertex="1">
                    <mxGeometry x="743.5" y="1230" width="120" height="40" as="geometry"/>
                </mxCell>
                <mxCell id="1477" value="&amp;nbsp;" style="rounded=1;fillColor=#f5af58;strokeColor=none;strokeWidth=3;shadow=0;html=1;fontColor=#FFFFFF;" parent="1" vertex="1">
                    <mxGeometry x="880" y="1150" width="120" height="40" as="geometry"/>
                </mxCell>
                <mxCell id="1478" value="&amp;nbsp;" style="rounded=1;fillColor=#f5af58;strokeColor=none;strokeWidth=3;shadow=0;html=1;fontColor=#FFFFFF;" parent="1" vertex="1">
                    <mxGeometry x="1103.5" y="1240" width="120" height="40" as="geometry"/>
                </mxCell>
                <mxCell id="1479" value="" style="edgeStyle=none;endArrow=none;strokeWidth=3;strokeColor=#F5AF58;html=1;" parent="1" source="1355" target="1478" edge="1">
                    <mxGeometry x="18.5" y="25" width="100" height="100" as="geometry">
                        <mxPoint x="18.5" y="125" as="sourcePoint"/>
                        <mxPoint x="118.5" y="25" as="targetPoint"/>
                    </mxGeometry>
                </mxCell>
                <mxCell id="1482" value="" style="edgeStyle=none;endArrow=none;strokeWidth=3;strokeColor=#F5AF58;html=1;" parent="1" source="1355" target="1470" edge="1">
                    <mxGeometry x="18.5" y="25" width="100" height="100" as="geometry">
                        <mxPoint x="18.5" y="125" as="sourcePoint"/>
                        <mxPoint x="118.5" y="25" as="targetPoint"/>
                    </mxGeometry>
                </mxCell>
                <mxCell id="1483" value="" style="edgeStyle=none;endArrow=none;strokeWidth=3;strokeColor=#F5AF58;html=1;" parent="1" source="1355" target="1471" edge="1">
                    <mxGeometry x="18.5" y="25" width="100" height="100" as="geometry">
                        <mxPoint x="18.5" y="125" as="sourcePoint"/>
                        <mxPoint x="118.5" y="25" as="targetPoint"/>
                    </mxGeometry>
                </mxCell>
                <mxCell id="1484" value="" style="edgeStyle=none;endArrow=none;strokeWidth=3;strokeColor=#F5AF58;html=1;" parent="1" source="1355" target="1472" edge="1">
                    <mxGeometry x="18.5" y="25" width="100" height="100" as="geometry">
                        <mxPoint x="18.5" y="125" as="sourcePoint"/>
                        <mxPoint x="118.5" y="25" as="targetPoint"/>
                    </mxGeometry>
                </mxCell>
                <mxCell id="1485" value="" style="edgeStyle=none;endArrow=none;strokeWidth=3;strokeColor=#F5AF58;html=1;" parent="1" source="1355" target="1473" edge="1">
                    <mxGeometry x="18.5" y="25" width="100" height="100" as="geometry">
                        <mxPoint x="18.5" y="125" as="sourcePoint"/>
                        <mxPoint x="118.5" y="25" as="targetPoint"/>
                    </mxGeometry>
                </mxCell>
                <mxCell id="1486" value="" style="edgeStyle=none;endArrow=none;strokeWidth=3;strokeColor=#F5AF58;html=1;" parent="1" source="1355" target="1474" edge="1">
                    <mxGeometry x="18.5" y="25" width="100" height="100" as="geometry">
                        <mxPoint x="18.5" y="125" as="sourcePoint"/>
                        <mxPoint x="118.5" y="25" as="targetPoint"/>
                    </mxGeometry>
                </mxCell>
                <mxCell id="1487" value="" style="edgeStyle=none;endArrow=none;strokeWidth=3;strokeColor=#F5AF58;html=1;" parent="1" source="1355" target="1475" edge="1">
                    <mxGeometry x="18.5" y="25" width="100" height="100" as="geometry">
                        <mxPoint x="18.5" y="125" as="sourcePoint"/>
                        <mxPoint x="118.5" y="25" as="targetPoint"/>
                    </mxGeometry>
                </mxCell>
                <mxCell id="1488" value="" style="edgeStyle=none;endArrow=none;strokeWidth=3;strokeColor=#F5AF58;html=1;" parent="1" source="1355" target="1476" edge="1">
                    <mxGeometry x="18.5" y="25" width="100" height="100" as="geometry">
                        <mxPoint x="18.5" y="125" as="sourcePoint"/>
                        <mxPoint x="118.5" y="25" as="targetPoint"/>
                    </mxGeometry>
                </mxCell>
                <mxCell id="1489" value="" style="edgeStyle=none;endArrow=none;strokeWidth=3;strokeColor=#F5AF58;html=1;" parent="1" source="1355" target="1477" edge="1">
                    <mxGeometry x="18.5" y="25" width="100" height="100" as="geometry">
                        <mxPoint x="18.5" y="125" as="sourcePoint"/>
                        <mxPoint x="118.5" y="25" as="targetPoint"/>
                    </mxGeometry>
                </mxCell>
                <mxCell id="1492" value="&amp;nbsp;" style="rounded=1;fillColor=#f08e81;strokeColor=none;strokeWidth=3;shadow=0;html=1;fontColor=#FFFFFF;" parent="1" vertex="1">
                    <mxGeometry x="271" y="766.5" width="120" height="40" as="geometry"/>
                </mxCell>
                <mxCell id="1494" value="&amp;nbsp;" style="rounded=1;fillColor=#f08e81;strokeColor=none;strokeWidth=3;shadow=0;html=1;fontColor=#FFFFFF;" parent="1" vertex="1">
                    <mxGeometry x="196" y="881.5" width="120" height="40" as="geometry"/>
                </mxCell>
                <mxCell id="1496" value="&amp;nbsp;" style="rounded=1;fillColor=#f08e81;strokeColor=none;strokeWidth=3;shadow=0;html=1;fontColor=#FFFFFF;" parent="1" vertex="1">
                    <mxGeometry x="246" y="1009" width="120" height="40" as="geometry"/>
                </mxCell>
                <mxCell id="1498" value="&amp;nbsp;" style="rounded=1;fillColor=#f08e81;strokeColor=none;strokeWidth=3;shadow=0;html=1;fontColor=#FFFFFF;" parent="1" vertex="1">
                    <mxGeometry x="426" y="1114" width="120" height="40" as="geometry"/>
                </mxCell>
                <mxCell id="1500" value="&amp;nbsp;" style="rounded=1;fillColor=#f08e81;strokeColor=none;strokeWidth=3;shadow=0;html=1;fontColor=#FFFFFF;" parent="1" vertex="1">
                    <mxGeometry x="611" y="981.5" width="120" height="40" as="geometry"/>
                </mxCell>
                <mxCell id="1501" value="&amp;nbsp;" style="rounded=1;fillColor=#f08e81;strokeColor=none;strokeWidth=3;shadow=0;html=1;fontColor=#FFFFFF;" parent="1" vertex="1">
                    <mxGeometry x="538.5" y="791.5" width="120" height="40" as="geometry"/>
                </mxCell>
                <mxCell id="1502" value="" style="edgeStyle=none;endArrow=none;strokeWidth=3;strokeColor=#F08E81;html=1;" parent="1" source="1356" target="1501" edge="1">
                    <mxGeometry x="36" y="-248.5" width="100" height="100" as="geometry">
                        <mxPoint x="36" y="-148.5" as="sourcePoint"/>
                        <mxPoint x="136" y="-248.5" as="targetPoint"/>
                    </mxGeometry>
                </mxCell>
                <mxCell id="1505" value="" style="edgeStyle=none;endArrow=none;strokeWidth=3;strokeColor=#F08E81;html=1;" parent="1" source="1356" target="1492" edge="1">
                    <mxGeometry x="36" y="-248.5" width="100" height="100" as="geometry">
                        <mxPoint x="36" y="-148.5" as="sourcePoint"/>
                        <mxPoint x="136" y="-248.5" as="targetPoint"/>
                    </mxGeometry>
                </mxCell>
                <mxCell id="1507" value="" style="edgeStyle=none;endArrow=none;strokeWidth=3;strokeColor=#F08E81;html=1;" parent="1" source="1356" target="1494" edge="1">
                    <mxGeometry x="36" y="-248.5" width="100" height="100" as="geometry">
                        <mxPoint x="36" y="-148.5" as="sourcePoint"/>
                        <mxPoint x="136" y="-248.5" as="targetPoint"/>
                    </mxGeometry>
                </mxCell>
                <mxCell id="1509" value="" style="edgeStyle=none;endArrow=none;strokeWidth=3;strokeColor=#F08E81;html=1;" parent="1" source="1356" target="1496" edge="1">
                    <mxGeometry x="36" y="-248.5" width="100" height="100" as="geometry">
                        <mxPoint x="36" y="-148.5" as="sourcePoint"/>
                        <mxPoint x="136" y="-248.5" as="targetPoint"/>
                    </mxGeometry>
                </mxCell>
                <mxCell id="1511" value="" style="edgeStyle=none;endArrow=none;strokeWidth=3;strokeColor=#F08E81;html=1;" parent="1" source="1356" target="1498" edge="1">
                    <mxGeometry x="36" y="-248.5" width="100" height="100" as="geometry">
                        <mxPoint x="36" y="-148.5" as="sourcePoint"/>
                        <mxPoint x="136" y="-248.5" as="targetPoint"/>
                    </mxGeometry>
                </mxCell>
                <mxCell id="1513" value="" style="edgeStyle=none;endArrow=none;strokeWidth=3;strokeColor=#F08E81;html=1;" parent="1" source="1356" target="1500" edge="1">
                    <mxGeometry x="36" y="-248.5" width="100" height="100" as="geometry">
                        <mxPoint x="36" y="-148.5" as="sourcePoint"/>
                        <mxPoint x="136" y="-248.5" as="targetPoint"/>
                    </mxGeometry>
                </mxCell>
                <mxCell id="1514" style="edgeStyle=orthogonalEdgeStyle;rounded=0;html=1;exitX=0.75;exitY=0;entryX=0.75;entryY=0;startArrow=none;startFill=0;endArrow=block;endFill=1;jettySize=auto;orthogonalLoop=1;strokeColor=#12aab5;strokeWidth=6;fontSize=20;fontColor=#2F5B7C;" parent="1" edge="1">
                    <mxGeometry relative="1" as="geometry">
                        <mxPoint x="1611" y="371.5" as="sourcePoint"/>
                        <mxPoint x="1611" y="371.5" as="targetPoint"/>
                    </mxGeometry>
                </mxCell>
                <mxCell id="1515" value="Greenhouse" style="ellipse;whiteSpace=wrap;html=1;shadow=0;fontFamily=Helvetica;fontSize=30;fontColor=#2F5B7C;align=center;strokeColor=#2F5B7C;strokeWidth=6;fillColor=#FFFFFF;fontStyle=1;gradientColor=none;" parent="1" vertex="1">
                    <mxGeometry x="961" y="676.5" width="270" height="270" as="geometry"/>
                </mxCell>
                <mxCell id="1541" value="" style="edgeStyle=none;endArrow=none;strokeWidth=3;strokeColor=#A29DC5;html=1;" parent="1" source="1354" target="1459" edge="1">
                    <mxGeometry x="-1174" y="-408.5" width="100" height="100" as="geometry">
                        <mxPoint x="-1174" y="-308.5" as="sourcePoint"/>
                        <mxPoint x="-1074" y="-408.5" as="targetPoint"/>
                    </mxGeometry>
                </mxCell>
                <mxCell id="1546" style="html=1;exitX=0.75;exitY=1;exitDx=0;exitDy=0;entryX=0.25;entryY=0;entryDx=0;entryDy=0;endArrow=none;endFill=0;" edge="1" parent="1" source="1542" target="1370">
                    <mxGeometry relative="1" as="geometry"/>
                </mxCell>
                <mxCell id="1542" value="Humidity" style="rounded=1;strokeColor=none;strokeWidth=3;shadow=0;html=1;fontColor=#FFFFFF;fillColor=#6DCDF7;" vertex="1" parent="1">
                    <mxGeometry x="246" y="101.5" width="130" height="40" as="geometry"/>
                </mxCell>
                <mxCell id="1543" value="Temperature" style="rounded=1;strokeColor=none;strokeWidth=3;shadow=0;html=1;fontColor=#FFFFFF;fillColor=#6DCDF7;" vertex="1" parent="1">
                    <mxGeometry x="191" y="190" width="130" height="40" as="geometry"/>
                </mxCell>
                <mxCell id="1544" value="CO2" style="rounded=1;strokeColor=none;strokeWidth=3;shadow=0;html=1;fontColor=#FFFFFF;fillColor=#6DCDF7;" vertex="1" parent="1">
                    <mxGeometry x="455" y="101.5" width="130" height="40" as="geometry"/>
                </mxCell>
                <mxCell id="1549" style="edgeStyle=none;html=1;exitX=1;exitY=0.5;exitDx=0;exitDy=0;endArrow=none;endFill=0;strokeColor=#f0f0f0;entryX=0.25;entryY=1;entryDx=0;entryDy=0;" edge="1" parent="1" source="1545" target="1370">
                    <mxGeometry relative="1" as="geometry">
                        <mxPoint x="368" y="246" as="targetPoint"/>
                    </mxGeometry>
                </mxCell>
                <mxCell id="1545" value="Pressure" style="rounded=1;strokeColor=none;strokeWidth=3;shadow=0;html=1;fontColor=#FFFFFF;fillColor=#6DCDF7;" vertex="1" parent="1">
                    <mxGeometry x="210" y="291.5" width="130" height="40" as="geometry"/>
                </mxCell>
                <mxCell id="1554" style="edgeStyle=none;html=1;exitX=0.75;exitY=0;exitDx=0;exitDy=0;entryX=0.25;entryY=1;entryDx=0;entryDy=0;endArrow=none;endFill=0;strokeColor=#f0f0f0;" edge="1" parent="1" source="1550" target="1368">
                    <mxGeometry relative="1" as="geometry"/>
                </mxCell>
                <mxCell id="1550" value="Temperature" style="rounded=1;strokeColor=#001DBC;strokeWidth=3;shadow=0;html=1;fillColor=#0050ef;fontColor=#ffffff;" vertex="1" parent="1">
                    <mxGeometry x="241" y="500" width="130" height="40" as="geometry"/>
                </mxCell>
                <mxCell id="1551" value="Humidity" style="rounded=1;strokeColor=#001DBC;strokeWidth=3;shadow=0;html=1;fillColor=#0050ef;fontColor=#ffffff;" vertex="1" parent="1">
                    <mxGeometry x="160" y="401.5" width="130" height="40" as="geometry"/>
                </mxCell>
                <mxCell id="1555" style="edgeStyle=none;html=1;exitX=0.25;exitY=0;exitDx=0;exitDy=0;entryX=0.75;entryY=1;entryDx=0;entryDy=0;endArrow=none;endFill=0;strokeColor=#f0f0f0;" edge="1" parent="1" source="1552" target="1368">
                    <mxGeometry relative="1" as="geometry"/>
                </mxCell>
                <mxCell id="1552" value="Pressure" style="rounded=1;strokeColor=#001DBC;strokeWidth=3;shadow=0;html=1;fillColor=#0050ef;fontColor=#ffffff;" vertex="1" parent="1">
                    <mxGeometry x="455" y="500" width="130" height="40" as="geometry"/>
                </mxCell>
                <mxCell id="1556" value="CO2" style="rounded=1;strokeColor=#001DBC;strokeWidth=3;shadow=0;html=1;fillColor=#0050ef;fontColor=#ffffff;" vertex="1" parent="1">
                    <mxGeometry x="455" y="101.5" width="130" height="40" as="geometry"/>
                </mxCell>
                <mxCell id="1557" value="Humidity" style="rounded=1;strokeColor=#001DBC;strokeWidth=3;shadow=0;html=1;fillColor=#0050ef;fontColor=#ffffff;" vertex="1" parent="1">
                    <mxGeometry x="246" y="101.5" width="130" height="40" as="geometry"/>
                </mxCell>
                <mxCell id="1558" value="Temperature" style="rounded=1;strokeColor=#001DBC;strokeWidth=3;shadow=0;html=1;fillColor=#0050ef;fontColor=#ffffff;" vertex="1" parent="1">
                    <mxGeometry x="191" y="190" width="130" height="40" as="geometry"/>
                </mxCell>
                <mxCell id="1559" value="Pressure" style="rounded=1;strokeColor=#001DBC;strokeWidth=3;shadow=0;html=1;fillColor=#0050ef;fontColor=#ffffff;" vertex="1" parent="1">
                    <mxGeometry x="210" y="291.5" width="130" height="40" as="geometry"/>
                </mxCell>
            </root>
        </mxGraphModel>
    </diagram>
</mxfile>